<?xml version="1.0" encoding="utf-8"?>
<!-- Generator: Adobe Illustrator 24.0.2, SVG Export Plug-In . SVG Version: 6.00 Build 0)  -->
<svg version="1.1" id="Layer_1" xmlns="http://www.w3.org/2000/svg" xmlns:xlink="http://www.w3.org/1999/xlink" x="0px" y="0px"
	 viewBox="0 0 1000 1000" style="enable-background:new 0 0 1000 1000;" xml:space="preserve">
<style type="text/css">
	.st0{fill:#FFFFFF;}
	.st1{fill:#262626;}
</style>
<g>
	<rect x="162.4" y="155.5" class="st0" width="623.9" height="673.5"/>
	<path class="st1" d="M500,10C228,10,10,225.8,10,498.9c1.1,200.4,121.1,381,298.4,452.6c180.6,80.4,411.8,29.7,538.5-104.6
		c134.3-128.8,185-360.1,104.6-538.5C879.9,130,702.7,12.2,500,10L500,10z M267.7,206l57.3-39.6l24.2,6.6L445,312.8l-2.2,22
		l-56.2,39.6c-25.3,19.8-8.8,48.5,9.9,98c9.9,18.7,23.1,38.5,38.5,61.7c16.5,22,29.7,38.5,40.8,48.5l17.6,14.3
		c14.3,13.2,17.6,14.3,27.5,23.1c18.7,11,31.9,15.4,47.4,5.5l54-37.4l20.9,2.2l100.2,136.5l-2.2,23.1l-55.1,41.8
		C571.6,826,459.3,765.4,349.2,609c-69.4-91.4-106.8-181.7-115.6-239C221.4,276.5,249,220.3,267.7,206z"/>
</g>
</svg>
